<?xml version="1.0" standalone="no"?>
<!DOCTYPE svg PUBLIC "-//W3C//DTD SVG 20010904//EN"
 "http://www.w3.org/TR/2001/REC-SVG-20010904/DTD/svg10.dtd">
<svg version="1.0" xmlns="http://www.w3.org/2000/svg"
 width="2000.000000pt" height="2000.000000pt" viewBox="0 0 2000.000000 2000.000000"
 preserveAspectRatio="xMidYMid meet">

<g transform="translate(0.000000,2000.000000) scale(0.100000,-0.100000)"
fill="#000000" stroke="none">
<path d="M0 10000 l0 -10000 10000 0 10000 0 0 10000 0 10000 -10000 0 -10000
0 0 -10000z m10000 90 l0 -3790 -757 2 -758 3 -3 3028 -2 3028 -1228 -4 c-875
-3 -1250 -7 -1307 -16 -122 -18 -239 -42 -249 -51 -5 -5 -15 -6 -22 -3 -8 3
-14 0 -14 -6 0 -6 -6 -8 -14 -5 -16 6 -217 -59 -333 -108 -64 -27 -72 -33 -61
-47 12 -14 11 -14 -4 -2 -15 11 -28 8 -95 -29 -129 -69 -335 -210 -329 -225 3
-9 0 -12 -8 -9 -15 6 -108 -74 -101 -87 4 -5 0 -7 -7 -4 -25 10 -305 -296
-291 -318 3 -6 1 -7 -5 -3 -13 8 -36 -30 -27 -44 3 -5 0 -8 -7 -5 -8 3 -31
-24 -59 -68 -64 -99 -62 -96 -47 -115 11 -15 11 -16 -3 -4 -15 11 -22 3 -58
-68 -23 -44 -39 -86 -35 -92 4 -6 3 -8 -4 -5 -8 6 -67 -115 -77 -158 -1 -5 -7
-23 -13 -38 -7 -16 -12 -33 -12 -38 0 -5 -4 -17 -10 -27 -16 -29 -58 -200 -80
-327 -27 -152 -37 -431 -21 -575 14 -131 42 -290 50 -286 3 2 7 -12 8 -33 1
-35 41 -162 81 -265 12 -31 22 -44 26 -35 3 8 3 4 0 -8 -3 -13 6 -43 23 -75
15 -29 28 -55 28 -58 7 -24 19 -39 28 -33 5 3 7 1 4 -5 -9 -14 3 -43 14 -36 5
3 7 -1 4 -8 -4 -11 44 -99 73 -133 4 -5 9 -14 9 -18 4 -28 182 -252 199 -251
8 1 11 -2 8 -7 -6 -11 30 -60 40 -54 3 3 4 2 1 -2 -8 -11 67 -83 79 -76 6 3 8
2 3 -2 -9 -10 21 -45 40 -45 7 0 13 -5 13 -11 0 -6 7 -9 14 -6 10 4 13 1 10
-7 -6 -16 19 -38 37 -34 8 2 13 -2 12 -9 -3 -16 85 -86 98 -77 8 4 9 3 5 -4
-6 -10 15 -27 93 -77 8 -5 22 -16 29 -23 8 -7 21 -11 29 -8 8 3 12 2 9 -3 -8
-12 5 -21 127 -85 61 -33 112 -54 120 -50 6 4 9 4 5 -1 -10 -10 112 -67 129
-61 9 4 11 1 7 -6 -5 -8 -2 -9 10 -5 9 4 15 3 12 -1 -6 -9 191 -72 319 -101
231 -53 243 -54 1122 -58 516 -3 829 -1 840 5 17 10 18 -21 16 -756 -2 -664
-5 -767 -17 -772 -9 -3 -406 -2 -883 1 -814 6 -878 7 -1032 28 -91 12 -196 28
-235 36 -39 8 -84 16 -101 19 -16 2 -37 6 -45 9 -40 15 -182 47 -190 42 -4 -3
-10 -2 -12 2 -1 5 -43 21 -93 36 -91 29 -285 99 -340 123 -104 45 -140 61
-226 104 -171 85 -368 199 -446 258 -18 13 -39 22 -47 19 -10 -4 -13 -1 -10 7
3 8 -10 23 -33 37 -21 13 -66 45 -100 71 -63 48 -80 58 -67 36 4 -7 3 -8 -5
-4 -6 4 -9 11 -6 16 6 10 -65 71 -77 64 -4 -3 -7 -1 -6 4 2 5 -22 31 -52 58
-30 26 -98 90 -150 142 -52 51 -100 90 -107 88 -7 -3 -10 1 -7 8 6 16 -104
138 -117 130 -5 -3 -6 3 -2 12 5 13 3 16 -10 11 -11 -4 -14 -2 -11 7 3 8 0 17
-7 22 -8 4 -10 3 -5 -4 11 -18 0 -14 -15 5 -10 11 -10 14 -1 9 23 -14 12 4
-45 77 -32 40 -85 109 -117 154 -32 46 -62 80 -66 78 -12 -7 -33 23 -25 35 4
6 -18 50 -48 98 -30 48 -67 111 -81 140 -17 32 -31 50 -38 46 -6 -4 -8 -3 -5
4 8 11 -36 105 -62 135 -9 11 -16 24 -16 30 0 19 -68 176 -74 172 -3 -1 -7 7
-7 18 -1 12 -16 58 -33 102 -37 92 -59 160 -115 355 -25 89 -74 345 -92 480
-9 75 -18 235 -21 400 -5 283 6 464 43 685 47 286 149 638 250 868 14 31 22
63 18 70 -4 6 -4 9 1 5 8 -7 147 255 148 280 0 6 4 12 8 12 12 0 81 129 74
140 -4 6 -2 9 4 8 14 -4 192 262 184 275 -3 6 -1 7 5 3 13 -8 133 143 125 157
-3 6 -2 7 4 4 5 -3 32 19 59 51 116 136 313 328 452 442 24 19 40 40 38 47 -3
7 -1 15 5 18 5 4 9 3 8 -2 -1 -4 -1 -12 0 -16 1 -10 146 102 146 113 0 5 4 12
9 17 5 5 6 2 1 -6 -11 -19 -4 -15 115 63 143 94 184 120 190 122 21 4 39 18
34 25 -3 5 2 6 10 3 10 -4 16 -1 16 7 0 7 3 9 7 6 3 -4 11 -2 18 3 18 15 253
130 265 130 6 0 8 5 4 12 -4 6 -3 8 3 5 6 -4 71 17 144 47 145 58 254 96 336
116 29 8 49 18 46 23 -3 6 -1 7 5 3 14 -8 84 3 78 13 -2 3 8 6 22 7 15 0 72
10 127 22 102 22 269 49 360 59 164 17 478 20 2248 21 l1957 2 0 -3790z m4018
3780 c183 -11 388 -38 543 -71 57 -12 116 -23 131 -23 14 -1 25 -3 23 -6 -2
-3 29 -14 68 -24 100 -26 166 -46 204 -62 17 -8 36 -14 41 -14 6 0 72 -25 147
-55 76 -30 142 -52 149 -48 6 3 8 3 4 -2 -7 -7 269 -150 285 -147 4 1 7 -2 7
-6 0 -8 35 -28 53 -30 4 -1 19 -10 34 -21 14 -12 30 -18 36 -14 5 3 7 1 4 -4
-4 -6 0 -14 9 -17 9 -3 63 -38 120 -76 106 -72 121 -79 108 -57 -4 7 -3 9 2 4
5 -5 9 -12 9 -17 0 -4 65 -59 144 -121 79 -63 204 -171 276 -241 73 -70 135
-124 139 -120 4 4 6 2 4 -5 -3 -11 95 -133 163 -205 15 -15 25 -29 22 -31 -2
-3 7 -13 20 -23 13 -11 24 -22 25 -27 1 -4 25 -40 55 -80 29 -39 68 -95 86
-124 19 -29 38 -50 42 -47 5 3 6 -1 4 -8 -3 -8 3 -23 13 -34 11 -11 21 -24 23
-29 9 -23 91 -165 95 -165 2 0 1 8 -2 18 -5 14 -4 14 4 2 6 -8 9 -17 6 -22 -3
-4 29 -74 69 -155 41 -81 80 -164 87 -183 7 -19 17 -39 22 -45 4 -5 8 -17 8
-28 0 -10 4 -16 9 -13 5 3 8 0 7 -7 0 -6 25 -89 56 -183 69 -208 109 -362 142
-554 45 -260 51 -340 51 -670 -1 -337 -10 -439 -61 -704 -27 -137 -108 -446
-127 -481 -6 -11 -10 -22 -10 -25 0 -3 -3 -14 -7 -25 -4 -11 -19 -51 -33 -90
-34 -94 -48 -127 -123 -283 -35 -74 -61 -139 -57 -145 3 -6 1 -7 -5 -3 -14 8
-36 -30 -26 -46 4 -6 3 -8 -3 -5 -5 3 -17 -9 -25 -27 -9 -18 -46 -78 -82 -135
-37 -57 -63 -107 -60 -114 4 -7 4 -9 -1 -5 -11 10 -56 -52 -48 -65 3 -6 1 -7
-5 -3 -13 8 -35 -28 -24 -39 4 -5 2 -5 -4 -2 -7 4 -14 1 -17 -6 -2 -6 -34 -49
-71 -94 -65 -81 -78 -101 -53 -87 8 5 8 3 -2 -9 -7 -9 -17 -15 -21 -12 -12 8
-33 -23 -24 -36 4 -8 3 -9 -5 -5 -13 8 -50 -31 -46 -49 1 -5 0 -7 -2 -3 -3 5
-62 -50 -131 -120 -70 -70 -156 -154 -192 -187 -36 -32 -64 -63 -62 -68 1 -5
-2 -6 -7 -3 -8 5 -35 -14 -117 -83 -11 -10 -48 -37 -82 -61 -57 -40 -61 -45
-46 -61 18 -20 0 -39 -19 -20 -9 9 -7 11 8 5 19 -6 19 -6 4 11 -16 16 -20 15
-70 -22 -89 -65 -244 -156 -441 -261 -21 -10 -34 -23 -30 -27 4 -5 1 -5 -5 -1
-7 4 -48 -9 -90 -29 -43 -20 -96 -45 -118 -55 -59 -27 -283 -107 -375 -133
-44 -13 -77 -27 -73 -32 5 -4 3 -5 -4 -1 -16 9 -184 -33 -207 -53 -11 -9 -16
-10 -12 -3 6 9 2 11 -16 8 -73 -17 -261 -48 -378 -63 -121 -15 -306 -17 -1753
-22 -889 -3 -1617 -3 -1617 0 0 4 -8 6 -17 5 -17 -1 -18 41 -18 756 l0 758
1600 3 c1672 4 1596 2 1810 41 79 14 216 50 305 79 178 58 419 174 402 192 -4
4 -2 5 5 1 15 -8 73 20 73 36 0 6 3 9 6 5 12 -12 285 186 281 205 -1 6 7 12
17 14 21 3 38 23 30 36 -3 4 1 6 8 3 17 -7 100 64 91 78 -3 5 -2 7 4 4 13 -8
75 62 66 76 -3 5 -1 7 5 3 9 -5 98 87 91 96 -1 2 14 21 34 43 36 39 49 63 25
49 -7 -4 -8 -3 -4 5 4 6 11 9 16 6 17 -11 177 246 164 266 -5 8 -3 9 6 4 10
-6 12 -4 7 9 -4 9 -3 15 1 12 12 -7 85 151 76 166 -4 7 -3 10 1 5 18 -15 94
218 130 398 62 305 58 628 -11 928 -24 104 -70 262 -82 282 -4 6 -7 13 -7 16
0 20 -70 167 -77 163 -4 -3 -5 3 -1 12 5 13 3 15 -7 9 -8 -5 -11 -4 -7 2 4 6
-9 43 -29 82 -32 64 -38 70 -52 59 -15 -11 -15 -11 -4 3 13 17 7 49 -9 49 -5
0 -9 4 -9 10 0 18 -71 121 -79 115 -5 -2 -8 3 -7 13 0 9 -5 16 -12 14 -7 -1
-12 5 -10 15 2 10 -2 17 -9 16 -7 -2 -12 1 -10 7 4 16 -107 150 -121 145 -7
-3 -10 0 -7 5 8 13 -142 165 -163 165 -9 1 -16 6 -15 12 3 14 -51 64 -73 67
-11 2 -19 9 -19 17 0 8 -8 13 -17 13 -10 -1 -16 3 -15 10 2 13 -219 161 -326
217 -67 35 -80 39 -95 27 -15 -11 -15 -11 -4 3 11 14 2 20 -70 49 -133 52
-289 102 -304 96 -8 -3 -14 -1 -14 5 0 6 -6 9 -14 6 -7 -3 -17 -2 -22 3 -10 9
-125 33 -249 52 -59 8 -504 12 -1690 15 l-1610 4 -3 747 c-1 411 0 753 3 760
6 15 3006 18 3263 2z m-10718 -1240 c0 -5 -5 -10 -11 -10 -5 0 -7 5 -4 10 3 6
8 10 11 10 2 0 4 -4 4 -10z m-55 -159 c-9 -8 -36 -10 -30 -2 2 4 11 8 20 8 8
0 13 -3 10 -6z m11652 -446 c0 -8 -4 -12 -9 -9 -5 3 -6 10 -3 15 9 13 12 11
12 -6z m-10502 -654 c-9 -8 -36 -10 -30 -2 2 4 11 8 20 8 8 0 13 -3 10 -6z m2
-2578 c0 -9 -4 -10 -14 -2 -7 6 -13 12 -13 14 0 1 6 2 13 2 8 0 14 -6 14 -14z
m11093 -157 c0 -2 -6 -9 -14 -15 -11 -9 -16 -9 -22 0 -4 7 -3 9 4 5 6 -3 13
-2 17 4 6 10 15 14 15 6z m1771 -133 c-12 -20 -14 -14 -5 12 4 9 9 14 11 11 3
-2 0 -13 -6 -23z m-2251 -277 c0 -2 -7 -7 -16 -10 -8 -3 -12 -2 -9 4 6 10 25
14 25 6z m-12039 -139 c-10 -9 -11 -8 -5 6 3 10 9 15 12 12 3 -3 0 -11 -7 -18z
m13952 -142 c-3 -9 -8 -14 -10 -11 -3 3 -2 9 2 15 9 16 15 13 8 -4z m-363
-448 c0 -2 -12 -14 -27 -28 l-28 -24 24 28 c23 25 31 32 31 24z m-13092 -33
c-1 -5 -9 -9 -16 -10 -10 -2 -11 1 -1 12 12 14 24 13 17 -2z m12997 -71 c-2
-10 -4 -19 -4 -21 -1 -2 -6 0 -11 3 -8 5 -7 11 1 21 15 18 18 18 14 -3z
m-12905 -8 c0 -2 -6 -8 -13 -14 -10 -8 -14 -7 -14 2 0 8 6 14 14 14 7 0 13 -1
13 -2z m457 -400 c0 -8 -4 -12 -9 -9 -5 3 -6 10 -3 15 9 13 12 11 12 -6z"/>
<path d="M3030 8031 c0 -5 5 -13 10 -16 6 -3 10 -2 10 4 0 5 -4 13 -10 16 -5
3 -10 2 -10 -4z"/>
</g>
</svg>
