<svg xmlns="http://www.w3.org/2000/svg" viewBox="0 0 236.85 150"><defs><style>.cls-1{fill:#4baffa;}</style></defs><g id="Bildmarke_Blau" data-name="Bildmarke Blau"><path class="cls-1" d="M145,57.76a41.77,41.77,0,0,1,10.63-15.18c8.1-7.87,19.14-11.39,31.33-11.38a52.19,52.19,0,0,1,5.68.31c1.45.19,2.82.4,4.13.65a39.77,39.77,0,0,1,16.57,7.56c2.86,2.21,4.15,3.65,7.55.22,3.77-3.79,11.13-11.42,14.38-15.2,2-2.35,2.17-4.55-.44-6.79A72.31,72.31,0,0,0,190.64.16h-.13c-1.16,0-2.32-.08-3.49-.08h0a76.91,76.91,0,0,0-14.5,1.36,73.48,73.48,0,0,0-29.86,13h0s-5.44,3-12.7,11.57Z"/><path class="cls-1" d="M236.72,128.21a3.71,3.71,0,0,0-1.06-2.18L220,110.35a2.39,2.39,0,0,0-.38-.33,3.81,3.81,0,0,0-2.28-.75,5,5,0,0,0-2.72.74,42.9,42.9,0,0,0-3.79,2.58,48.51,48.51,0,0,1-21.92,7.15c-.82.05-1.64.08-2.47.08a45.83,45.83,0,0,1-25.7-7.85c-.48-.33-1-.66-1.42-1a41.51,41.51,0,0,1-3.88-3.23l-.25-.22-.06-.06a40.41,40.41,0,0,1-8.75-12.21s-26-56.64-26.07-56.51L102.45,0H69.36L0,149.89H27.44a8.84,8.84,0,0,0,8-5.13l50.42-109,30.57,66.27c.51,1.14,1,2.24,1.53,3.32l.76,1.65h0C130.54,133,156.62,150,186.34,150h.08a75.81,75.81,0,0,0,49-18.42A3.82,3.82,0,0,0,236.72,128.21ZM123.42,45.48"/></g></svg>